<svg xmlns="http://www.w3.org/2000/svg" width="15" height="11" viewBox="0 0 15 11" fill="none">
<path d="M2.38928 6.21695C2.45329 6.21695 2.51731 6.21695 2.57705 6.21695C6.44769 6.21695 10.3183 6.21695 14.189 6.21695C14.2957 6.21695 14.4023 6.21695 14.5048 6.19134C14.8206 6.10599 15.0339 5.7902 14.9955 5.47867C14.9529 5.12873 14.6968 4.88121 14.3511 4.86414C14.2829 4.85988 14.2146 4.85988 14.142 4.85988C10.2842 4.85988 6.42209 4.85988 2.56425 4.85988C2.50023 4.85988 2.44049 4.85988 2.37648 4.85988C2.35941 4.83427 2.33807 4.80867 2.321 4.78733C2.37221 4.76172 2.43622 4.74892 2.4789 4.71051C3.61406 3.57962 4.74495 2.44446 5.88011 1.31357C6.08495 1.10873 6.1831 0.878279 6.10202 0.592355C5.96973 0.122927 5.40215 -0.0563082 5.02234 0.250953C4.9754 0.289361 4.93699 0.332037 4.89431 0.370444C3.35801 1.90675 1.8217 3.44306 0.285392 4.97937C-0.0944172 5.35918 -0.0944172 5.72618 0.281125 6.10173C1.83023 7.65084 3.38361 9.20421 4.93272 10.7533C5.13756 10.9582 5.36801 11.052 5.65393 10.971C6.11482 10.8387 6.29406 10.2796 5.9996 9.90409C5.95266 9.84434 5.90145 9.79313 5.84597 9.74192C4.72361 8.61956 3.60126 7.4972 2.4789 6.37911C2.44049 6.34071 2.38501 6.3151 2.33807 6.28096C2.35941 6.25536 2.37221 6.23402 2.38928 6.21695Z" fill="#656565"/>
</svg>