
<svg width="15" height="11" viewBox="0 0 15 11" fill="none" xmlns="http://www.w3.org/2000/svg">
<path d="M12.6107 6.21695C12.5467 6.21695 12.4827 6.21695 12.4229 6.21695C8.55231 6.21695 4.68167 6.21695 0.811028 6.21695C0.704341 6.21695 0.597652 6.21695 0.495231 6.19134C0.179434 6.10599 -0.0339407 5.7902 0.00446667 5.47867C0.0471417 5.12873 0.303193 4.88121 0.648862 4.86414C0.717142 4.85988 0.785423 4.85988 0.857971 4.85988C4.71581 4.85988 8.57791 4.85988 12.4358 4.85988C12.4998 4.85988 12.5595 4.85988 12.6235 4.85988C12.6406 4.83427 12.6619 4.80867 12.679 4.78733C12.6278 4.76172 12.5638 4.74892 12.5211 4.71051C11.3859 3.57962 10.2551 2.44446 9.11989 1.31357C8.91505 1.10873 8.8169 0.87828 8.89798 0.592356C9.03027 0.122928 9.59785 -0.0563072 9.97766 0.250954C10.0246 0.289362 10.063 0.332037 10.1057 0.370445C11.642 1.90675 13.1783 3.44306 14.7146 4.97937C15.0944 5.35918 15.0944 5.72618 14.7189 6.10173C13.1698 7.65084 11.6164 9.20421 10.0673 10.7533C9.86244 10.9582 9.63199 11.052 9.34607 10.971C8.88518 10.8387 8.70594 10.2796 9.0004 9.90409C9.04734 9.84434 9.09855 9.79313 9.15403 9.74192C10.2764 8.61956 11.3987 7.49721 12.5211 6.37911C12.5595 6.34071 12.615 6.3151 12.6619 6.28096C12.6406 6.25536 12.6278 6.23402 12.6107 6.21695Z" fill="#656565"/>
</svg>
