
<svg width="15" height="28" viewBox="0 0 15 28" fill="none" xmlns="http://www.w3.org/2000/svg">
<g clip-path="url(#clip0_1779_877)">
<path d="M13.3584 28.0006C12.9193 27.855 12.6077 27.5493 12.2961 27.2144C8.37259 23.1811 4.44908 19.1478 0.525563 15.1145C-0.0268447 14.5467 -0.140159 13.8914 0.199784 13.2799C0.270606 13.1488 0.369756 13.0324 0.48307 12.9159C4.50573 8.78067 8.54256 4.64546 12.5794 0.495697C12.9902 0.0734398 13.4859 -0.115848 14.0525 0.0734398C14.5766 0.248167 14.8882 0.641302 14.9873 1.1946C15.0581 1.63142 14.9307 2.01 14.6615 2.33033C14.5907 2.41769 14.5057 2.50506 14.4207 2.59242C10.7947 6.31993 7.18279 10.0329 3.55672 13.7604C3.4859 13.8332 3.38675 13.8914 3.2876 13.9497C3.2876 13.9934 3.2876 14.037 3.2876 14.0662C3.37259 14.1244 3.47174 14.1826 3.54256 14.2554C7.18279 17.9975 10.8372 21.7396 14.4774 25.4817C15.0298 26.0495 15.1431 26.7339 14.7749 27.3308C14.5624 27.6803 14.2366 27.855 13.8683 28.0006C13.7125 28.0006 13.5284 28.0006 13.3584 28.0006Z" fill="black" fill-opacity="0.7"/>
</g>
<defs>
<clipPath id="clip0_1779_877">
<rect width="15" height="28" fill="white"/>
</clipPath>
</defs>
</svg>
